# xmcd
#
# Track frame offsets: 
#        150
#        18020
#        34347
#        52575
#        69507
#        87185
#        106375
#        120205
#        135692
#        148647
#        164957
#        178450
#        196380
#        211900
#        230742
#        252045
#        269677
#        288297
#
# Disc length: 4046 seconds
#
# Revision: 0
# Processed by: cddbd v1.5.2PL0 Copyright (c) Steve Scherf et al.
# Submitted via: ExactAudioCopyFreeDBPlugin 1.0
#
DISCID=080fcc12
DTITLE=House of Fun All-Stars - Today's Country Party Favorites
DYEAR=1900
DGENRE=Country
TTITLE0=This One's for the Girls
TTITLE1=That'd Be Alright
TTITLE2=I'm Gonna Getcha Good
TTITLE3=It's Five O'clock Somewhere
TTITLE4=I Love This Bar
TTITLE5=Goodbye Earl
TTITLE6=Love You Out Loud
TTITLE7=You Can't Take the Honkey Tonk Out of the Girl
TTITLE8=Up!
TTITLE9=Celebrity
TTITLE10=Ten Rounds with Jose Cuervo
TTITLE11=Who's Your Daddy?
TTITLE12=My Front Porch Looking In
TTITLE13=She's My Kind of Rain
TTITLE14=Forever and For Always
TTITLE15=Red Dirt Road
TTITLE16=My Town
TTITLE17=Beer for My Horses
EXTD=
EXTT0=
EXTT1=
EXTT2=
EXTT3=
EXTT4=
EXTT5=
EXTT6=
EXTT7=
EXTT8=
EXTT9=
EXTT10=
EXTT11=
EXTT12=
EXTT13=
EXTT14=
EXTT15=
EXTT16=
EXTT17=
PLAYORDER=
